<svg width="44" height="44" viewBox="0 0 44 44" fill="none" xmlns="http://www.w3.org/2000/svg">
<path d="M36.9186 18.0813L35.5951 16.6977C34.9936 16.1562 34.0912 16.1562 33.5498 16.6977L33.1889 17.0586L26.3912 10.2609L26.7521 9.9C27.2936 9.35859 27.2936 8.45625 26.7521 7.85469L25.3686 6.53125C24.8271 5.92969 23.9248 5.92969 23.3232 6.53125L15.8639 13.9906C15.2623 14.532 15.2623 15.4945 15.8639 16.0359L17.1873 17.4195C17.7889 17.9609 18.6912 17.9609 19.2326 17.4195L19.5936 17.0586L21.9998 19.4047L17.1271 24.3375L16.7662 23.9766C15.9842 23.1945 14.7811 23.1945 14.0592 23.9766L7.14121 30.8945C6.35918 31.6164 6.35918 32.8195 7.14121 33.6016L9.84824 36.3086C10.6303 37.0906 11.8334 37.0906 12.5553 36.3086L19.4732 29.3906C20.2553 28.6688 20.2553 27.4656 19.4732 26.6836L19.1123 26.3227L24.0451 21.45L26.3912 23.8563L26.0303 24.2172C25.4889 24.7586 25.4889 25.6609 26.0303 26.2625L27.4139 27.5859C27.9553 28.1875 28.9178 28.1875 29.4592 27.5859L36.9186 20.1266C37.5201 19.525 37.5201 18.6227 36.9186 18.0813Z" fill="url(#paint0_linear_422_7661)"/>
<defs>
<linearGradient id="paint0_linear_422_7661" x1="11.5" y1="11.5" x2="32.5" y2="30.5" gradientUnits="userSpaceOnUse">
<stop stop-color="#3840E7" style="stop-color:#3840E7;stop-color:color(display-p3 0.2196 0.2510 0.9059);stop-opacity:1;"/>
<stop offset="1" stop-color="#91FCE4" style="stop-color:#91FCE4;stop-color:color(display-p3 0.5686 0.9882 0.8941);stop-opacity:1;"/>
</linearGradient>
</defs>
</svg>
